<?xml version="1.0" standalone="no"?><svg xmlns="http://www.w3.org/2000/svg" viewBox="0 0 1440 320"><path fill="#f0932b" fill-opacity="0.7" d="M0,160L40,181.3C80,203,160,245,240,240C320,235,400,181,480,181.3C560,181,640,235,720,218.7C800,203,880,117,960,122.7C1040,128,1120,224,1200,234.7C1280,245,1360,171,1400,133.3L1440,96L1440,320L1400,320C1360,320,1280,320,1200,320C1120,320,1040,320,960,320C880,320,800,320,720,320C640,320,560,320,480,320C400,320,320,320,240,320C160,320,80,320,40,320L0,320Z"></path></svg>